#N canvas 652 565 616 468 10;
#X obj 100 50 inlet~;
#X obj 96 301 outlet~;
#X obj 100 100 snake~ out 16;
#X obj 96 251 snake~ in 16;
#X obj 461 117 vsl 19 128 -10 10 0 1 empty empty L1 0 -9 0 12 #fcfcfc #000000 #000000 6600 1;
#X obj 481 117 vsl 19 128 -10 10 0 1 empty empty L2 0 -9 0 12 #fcfcfc #000000 #000000 4500 1;
#X obj 501 117 vsl 19 128 -10 10 0 1 empty empty L3 0 -9 0 12 #fcfcfc #000000 #000000 8100 1;
#X obj 521 117 vsl 19 128 -10 10 0 1 empty empty L4 0 -9 0 12 #fcfcfc #000000 #000000 8600 1;
#X obj 541 117 vsl 19 128 -10 10 0 1 empty empty L5 0 -9 0 12 #fcfcfc #000000 #000000 7400 1;
#X obj 561 117 vsl 19 128 -10 10 0 1 empty empty L6 0 -9 0 12 #fcfcfc #000000 #000000 9400 1;
#X obj 581 117 vsl 19 128 -10 10 0 1 empty empty L7 0 -9 0 12 #fcfcfc #000000 #000000 5900 1;
#X obj 601 117 vsl 19 128 -10 10 0 1 empty empty L8 0 -9 0 12 #fcfcfc #000000 #000000 3200 1;
#X obj 621 117 vsl 19 128 -10 10 0 1 empty empty L9 0 -9 0 12 #fcfcfc #000000 #000000 6350 1;
#X obj 641 117 vsl 19 128 -10 10 0 1 empty empty L10 0 -9 0 12 #fcfcfc #000000 #000000 6350 1;
#X obj 661 117 vsl 19 128 -10 10 0 1 empty empty L11 0 -9 0 12 #fcfcfc #000000 #000000 6350 1;
#X obj 681 117 vsl 19 128 -10 10 0 1 empty empty L12 0 -9 0 12 #fcfcfc #000000 #000000 6350 1;
#X obj 701 117 vsl 19 128 -10 10 0 1 empty empty L13 0 -9 0 12 #fcfcfc #000000 #000000 6350 1;
#X obj 721 117 vsl 19 128 -10 10 0 1 empty empty L14 0 -9 0 12 #fcfcfc #000000 #000000 6350 1;
#X obj 741 117 vsl 19 128 -10 10 0 1 empty empty L15 0 -9 0 12 #fcfcfc #000000 #000000 6350 1;
#X obj 761 117 vsl 19 128 -10 10 0 1 empty empty L16 0 -9 0 12 #fcfcfc #000000 #000000 6350 1;
#X obj 97 193 *~;
#X obj 117 193 *~;
#X obj 137 193 *~;
#X obj 157 193 *~;
#X obj 177 193 *~;
#X obj 197 193 *~;
#X obj 217 193 *~;
#X obj 237 193 *~;
#X obj 257 193 *~;
#X obj 277 193 *~;
#X obj 297 193 *~;
#X obj 317 193 *~;
#X obj 337 193 *~;
#X obj 357 193 *~;
#X obj 377 193 *~;
#X obj 397 193 *~;
#X text 162 14 Latent Space Controls (16 dimensions);
#X obj 541 -35 midi-control 36;
#X obj 561 -17 midi-control 37;
#X obj 581 2 midi-control 38;
#X obj 601 20 midi-control 39;
#X obj 461 -107 midi-control 32;
#X obj 481 -89 midi-control 33;
#X obj 501 -70 midi-control 34;
#X obj 521 -52 midi-control 35;
#X msg 400 81 0;
#X connect 0 0 2 0;
#X connect 2 0 20 0;
#X connect 2 1 21 0;
#X connect 2 2 22 0;
#X connect 2 3 23 0;
#X connect 2 4 24 0;
#X connect 2 5 25 0;
#X connect 2 6 26 0;
#X connect 2 7 27 0;
#X connect 2 8 28 0;
#X connect 2 9 29 0;
#X connect 2 10 30 0;
#X connect 2 11 31 0;
#X connect 2 12 32 0;
#X connect 2 13 33 0;
#X connect 2 14 34 0;
#X connect 2 15 35 0;
#X connect 3 0 1 0;
#X connect 4 0 20 1;
#X connect 5 0 21 1;
#X connect 6 0 22 1;
#X connect 7 0 23 1;
#X connect 8 0 24 1;
#X connect 9 0 25 1;
#X connect 10 0 26 1;
#X connect 11 0 27 1;
#X connect 12 0 28 1;
#X connect 13 0 29 1;
#X connect 14 0 30 1;
#X connect 15 0 31 1;
#X connect 16 0 32 1;
#X connect 17 0 33 1;
#X connect 18 0 34 1;
#X connect 19 0 35 1;
#X connect 20 0 3 0;
#X connect 21 0 3 1;
#X connect 22 0 3 2;
#X connect 23 0 3 3;
#X connect 24 0 3 4;
#X connect 25 0 3 5;
#X connect 26 0 3 6;
#X connect 27 0 3 7;
#X connect 28 0 3 8;
#X connect 29 0 3 9;
#X connect 30 0 3 10;
#X connect 31 0 3 11;
#X connect 32 0 3 12;
#X connect 33 0 3 13;
#X connect 34 0 3 14;
#X connect 35 0 3 15;
#X connect 37 0 8 0;
#X connect 38 0 9 0;
#X connect 39 0 10 0;
#X connect 40 0 11 0;
#X connect 41 0 4 0;
#X connect 42 0 5 0;
#X connect 43 0 6 0;
#X connect 44 0 7 0;
#X connect 45 0 5 0;
#X connect 45 0 19 0;
#X connect 45 0 18 0;
#X connect 45 0 17 0;
#X connect 45 0 16 0;
#X connect 45 0 15 0;
#X connect 45 0 14 0;
#X connect 45 0 13 0;
#X connect 45 0 12 0;
#X connect 45 0 11 0;
#X connect 45 0 10 0;
#X connect 45 0 9 0;
#X connect 45 0 8 0;
#X connect 45 0 7 0;
#X connect 45 0 6 0;
#X connect 45 0 4 0;
