#N canvas 0 0 1000 750 12;
#X obj 50 80 osc~ 440;
#X obj 120 80 osc~ 880;
#X obj 50 150 sample-delay 64;
#X obj 50 250 dac~;
#X obj 300 80 osc~ 220;
#X obj 370 80 osc~ 330;
#X obj 300 150 sample-delay 256;
#X obj 300 250 dac~;
#X obj 550 80 osc~ 110;
#X obj 620 80 osc~ 165;
#X obj 550 150 sample-delay 1024;
#X obj 550 250 dac~;
#X msg 750 100 \; pd dsp 1;
#X msg 750 130 \; pd dsp 0;
#X text 50 10 Stereo Sample Delay Help - Delays stereo audio by exact number of samples;
#X text 50 30 Usage: [sample-delay N] where N is the delay in samples;
#X text 50 50 Left: 440Hz \, Right: 880Hz with 64 sample delay;
#X text 300 50 Left: 220Hz \, Right: 330Hz with 256 sample delay;
#X text 550 50 Left: 110Hz \, Right: 165Hz with 1024 sample delay;
#X text 750 50 DSP Control:;
#X text 750 80 Turn on DSP ->;
#X text 750 160 <- Turn off DSP;
#X obj 50 350 noise~;
#X obj 120 350 noise~;
#X obj 50 420 sample-delay 441;
#X obj 50 520 dac~;
#X text 50 300 Stereo noise with 441 sample delay (~10ms @ 44.1kHz);
#X text 50 600 Sample delay examples:;
#X text 50 620 44 samples = ~1ms @ 44.1kHz (subtle comb filtering);
#X text 50 640 441 samples = ~10ms @ 44.1kHz (noticeable delay);
#X text 50 660 2205 samples = ~50ms @ 44.1kHz (clear echo);
#X text 50 680 Each channel is delayed independently by the same amount.;
#X obj 800 200 nbx 8 20 8000 192000 0 0 empty empty sample_rate 0 -8 0 12 #fcfcfc #000000 #000000 44100 256;
#X text 750 180 Current sample rate:;
#X text 800 220 (read-only);
#X obj 800 250 samplerate~;
#X connect 0 0 2 0;
#X connect 1 0 2 1;
#X connect 2 0 3 0;
#X connect 2 1 3 1;
#X connect 4 0 6 0;
#X connect 5 0 6 1;
#X connect 6 0 7 0;
#X connect 6 1 7 1;
#X connect 8 0 10 0;
#X connect 9 0 10 1;
#X connect 10 0 11 0;
#X connect 10 1 11 1;
#X connect 22 0 24 0;
#X connect 23 0 24 1;
#X connect 24 0 25 0;
#X connect 24 1 25 1;
#X connect 35 0 32 0;