#N canvas 1546 47 1509 793 12;
#X obj 56 133 vu 20 200 empty empty -1 -10 0 12 #404040 #000000 1 0;
#X obj 135 163 env~;
#X obj 225 229 *~;
#X obj 228 72 readsf~ 2;
#X obj 183 164 env~;
#X obj 255 229 *~;
#X msg 230 29 1;
#X obj 129 204 - 90;
#X obj 363 209 hsl 170 20 0 1 0 0 empty empty empty -2 -10 0 12 #fcfcfc #000000 #000000 0 1;
#N canvas 1546 889 745 792 rave-processing 1;
#X obj 116 171 inlet~;
#X obj 209 171 inlet~;
#X obj 116 400 outlet~;
#X obj 208 401 outlet~;
#X obj 370 252 print model-info;
#X obj 116 302 latent-control;
#X obj 114 232 nn~ -m isis encode 16384;
#X obj 114 354 nn~ -m isis decode 16384;
#X connect 0 0 6 0;
#X connect 5 0 7 0;
#X connect 6 0 5 0;
#X connect 6 1 4 0;
#X connect 7 0 2 0;
#X connect 7 0 3 0;
#X restore 198 334 pd rave-processing;
#X obj 334 581 dac~;
#X obj 421 299 sample-delay 16384;
#X obj 238 392 *~;
#X obj 268 392 *~;
#X obj 18 372 hsl 170 20 0 1 0 0 empty empty empty -2 -10 0 12 #fcfcfc #000000 #000000 0 1;
#X msg 276 30 open assets/bse_drums.wav;
#X obj 173 470 snake~ out 2;
#X obj 269 470 snake~ out 2;
#X obj 403 511 *~;
#X obj 433 511 *~;
#X obj 642 367 hsl 170 20 0 1 0 0 empty empty empty -2 -10 0 12 #fcfcfc #000000 #000000 0 1;
#X connect 1 0 7 0;
#X connect 2 0 1 0;
#X connect 2 0 9 0;
#X connect 3 0 2 0;
#X connect 3 0 11 0;
#X connect 3 1 5 0;
#X connect 3 1 11 1;
#X connect 5 0 4 0;
#X connect 5 0 9 1;
#X connect 6 0 3 0;
#X connect 7 0 0 0;
#X connect 8 0 5 1;
#X connect 8 0 2 1;
#X connect 9 0 12 0;
#X connect 9 1 13 0;
#X connect 11 0 18 0;
#X connect 11 1 19 0;
#X connect 12 0 16 0;
#X connect 13 0 17 0;
#X connect 14 0 13 1;
#X connect 14 0 12 1;
#X connect 15 0 3 0;
#X connect 16 0 10 0;
#X connect 17 0 10 1;
#X connect 18 0 10 0;
#X connect 19 0 10 1;
#X connect 20 0 19 1;
#X connect 20 0 18 1;
