#N canvas 2310 47 745 793 12;
#X obj 89 100 inlet~;
#X obj 200 100 inlet~;
#X obj 100 550 outlet~;
#X obj 200 550 outlet~;
#X obj 300 150 loadbang;
#X obj 300 200 \$1;
#X obj 300 250 t f f f;
#X obj 300 300 samplerate~;
#X obj 350 300 /;
#X obj 300 350 * 1000;
#X obj 300 400 max 0;
#X obj 300 448 print delay-ms;
#X obj 85 233 delwrite~ \$0-delay-L 10000;
#X obj 108 192 delwrite~ \$0-delay-R 10000;
#X obj 100 455 delread~ \$0-delay-L;
#X obj 200 502 delread~ \$0-delay-R;
#X text 400 100 Left channel;
#X text 400 120 Right channel;
#X text 400 200 delay amount in samples (argument);
#X text 400 250 split to both channels and sample rate calc;
#X text 400 300 get sample rate and divide by 1000;
#X text 400 350 convert samples to milliseconds;
#X text 400 400 ensure non-negative delay;
#X text 50 20 sample-delay: stereo delay by exact number of samples;
#X text 50 40 Usage: [sample-delay 64] for 64 sample delay;
#X text 50 570 arguments: delay_samples (default: 0);
#X text 50 590 inlets: left_audio~ \, right_audio~;
#X text 50 610 outlets: delayed_left~ \, delayed_right~;
#X connect 0 0 12 0;
#X connect 1 0 13 0;
#X connect 4 0 5 0;
#X connect 5 0 6 0;
#X connect 6 0 7 0;
#X connect 6 1 8 1;
#X connect 6 2 8 1;
#X connect 7 0 8 0;
#X connect 8 0 9 0;
#X connect 9 0 10 0;
#X connect 10 0 11 0;
#X connect 14 0 2 0;
#X connect 15 0 3 0;
