#N canvas 1036 47 1000 1133 12;
#X obj 229 258 dac~;
#X obj 56 133 vu 20 200 empty empty -1 -10 0 12 #404040 #000000 1 0;
#X obj 135 163 env~;
#X obj 228 126 *~;
#X obj 228 72 readsf~ 2;
#X obj 183 164 env~;
#X obj 258 126 *~;
#X msg 230 29 1;
#X obj 129 204 - 90;
#X obj 361 115 hsl 170 20 0 1 0 0 empty empty empty -2 -10 0 12 #fcfcfc #000000 #000000 0 1;
#N canvas 2055 47 1000 542 rave-processing 1;
#X obj 116 171 inlet~;
#X obj 209 171 inlet~;
#X obj 116 400 outlet~;
#X obj 208 401 outlet~;
#X obj 370 252 print model-info;
#X obj 116 302 latent-control;
#X obj 115 232 nn~ -m sol_full encode 8192;
#X obj 116 354 nn~ -m sol_full decode 8192;
#X connect 0 0 6 0;
#X connect 5 0 7 0;
#X connect 6 0 5 0;
#X connect 6 1 4 0;
#X connect 7 0 2 0;
#X connect 7 0 3 0;
#X restore 228 202 pd rave-processing;
#X msg 276 30 open assets/drums.wav;
#X connect 2 0 8 0;
#X connect 3 0 2 0;
#X connect 3 0 10 0;
#X connect 4 0 3 0;
#X connect 4 1 6 0;
#X connect 6 0 5 0;
#X connect 6 0 10 1;
#X connect 7 0 4 0;
#X connect 8 0 1 0;
#X connect 9 0 6 1;
#X connect 9 0 3 1;
#X connect 10 0 0 0;
#X connect 10 1 0 1;
#X connect 11 0 4 0;
