#N canvas 0 1728 1920 1050 12;
#X text 50 20 =============== MESH EFFECT TEMPLATE ===============;
#X text 50 45 Copy this folder and rename to create a new effect.;
#X text 50 65 The folder name must match the .pd filename.;
#X text 50 100 --- AUDIO I/O ---;
#X obj 54 150 adc~ 1, f 4;
#X obj 88 150 adc~ 2, f 5;
#X text 51 117 Left in, f 5;
#X text 88 116 Right in, f 6;
#X obj 53 392 dac~ 1;
#X obj 153 392 dac~ 2;
#X text 53 412 Left out;
#X text 153 412 Right out;
#X text 120 181 --- PARAMETER RECEIVERS ---;
#X text 120 201 All params receive 0.0-1.0 normalized values;
#N canvas 1446 824 457 209 params 0;
#X obj 50 50 r \$0-param0;
#X obj 147 51 r \$0-param1;
#X obj 245 51 r \$0-param2;
#X obj 342 51 r \$0-param3;
#X obj 439 51 r \$0-param4;
#X obj 535 51 r \$0-param5;
#X obj 635 51 r \$0-param6;
#X obj 734 51 r \$0-param7;
#X obj 50 160 outlet;
#X obj 147 161 outlet;
#X obj 245 160 outlet;
#X obj 342 161 outlet;
#X obj 439 160 outlet;
#X obj 535 161 outlet;
#X obj 635 160 outlet;
#X obj 734 161 outlet;
#X connect 0 0 8 0;
#X connect 1 0 9 0;
#X connect 2 0 10 0;
#X connect 3 0 11 0;
#X connect 4 0 12 0;
#X connect 5 0 13 0;
#X connect 6 0 14 0;
#X connect 7 0 15 0;
#X restore 123 231 pd params;
#X f 36;
#X obj 434 293 r \$0-bypass;
#X text 534 290 <- Bypass (0=active;
#X obj 54 313 *~;
#X obj 154 313 *~;
#X text 204 313 <- Bypass gate;
#N canvas 0 1728 1920 1050 procesing 0;
#X obj 65 83 inlet~;
#X obj 123 82 inlet~;
#X obj 65 436 outlet~;
#X obj 125 436 outlet~;
#X obj 85 216 inlet;
#X obj 141 216 inlet;
#X obj 198 216 inlet;
#X obj 254 216 inlet;
#X obj 310 216 inlet;
#X obj 366 216 inlet;
#X obj 423 216 inlet;
#X obj 480 216 inlet;
#X obj 66 145 nn~ -m percussion encode 2048;
#X obj 66 344 nn~ -m percussion decode 2048;
#X obj 66 185 snake~ out 8, f 57;
#X obj 67 251 *~;
#X obj 67 289 snake~ in 8, f 57;
#X obj 123 251 *~;
#X obj 180 251 *~;
#X obj 236 251 *~;
#X obj 292 251 *~;
#X obj 348 251 *~;
#X obj 405 251 *~;
#X obj 462 251 *~;
#X connect 0 0 12 0;
#X connect 4 0 15 1;
#X connect 5 0 17 1;
#X connect 6 0 18 1;
#X connect 7 0 19 1;
#X connect 8 0 20 1;
#X connect 9 0 21 1;
#X connect 10 0 22 1;
#X connect 11 0 23 1;
#X connect 12 0 14 0;
#X connect 13 0 2 0;
#X connect 13 0 3 0;
#X connect 14 0 15 0;
#X connect 14 1 17 0;
#X connect 14 2 18 0;
#X connect 14 3 19 0;
#X connect 14 4 20 0;
#X connect 14 5 21 0;
#X connect 14 6 22 0;
#X connect 14 7 23 0;
#X connect 15 0 16 0;
#X connect 16 0 13 0;
#X connect 17 0 16 1;
#X connect 18 0 16 2;
#X connect 19 0 16 3;
#X connect 20 0 16 4;
#X connect 21 0 16 5;
#X connect 22 0 16 6;
#X connect 23 0 16 7;
#X restore 53 269 pd procesing;
#X f 46;
#X connect 4 0 20 0;
#X connect 14 0 20 2;
#X connect 14 1 20 3;
#X connect 14 2 20 4;
#X connect 14 3 20 5;
#X connect 14 4 20 6;
#X connect 14 5 20 7;
#X connect 14 6 20 8;
#X connect 14 7 20 9;
#X connect 15 0 17 1;
#X connect 15 0 18 1;
#X connect 17 0 8 0;
#X connect 18 0 9 0;
#X connect 20 0 17 0;
#X connect 20 1 18 0;
