#N canvas 0 0 600 400 12;

#X obj 50 50 adc~ 1;
#X obj 200 50 adc~ 2;

#X obj 50 350 dac~ 1;
#X obj 200 350 dac~ 2;

#X obj 350 100 r \$0-param0;
#X obj 350 140 * 2;
#X obj 350 180 pack 0 50;
#X obj 350 220 line~;

#X obj 50 250 *~;
#X obj 200 250 *~;

#X obj 350 50 r \$0-bypass;

#X connect 0 0 8 0;
#X connect 1 0 9 0;

#X connect 4 0 5 0;
#X connect 5 0 6 0;
#X connect 6 0 7 0;
#X connect 7 0 8 1;
#X connect 7 0 9 1;

#X connect 8 0 2 0;
#X connect 9 0 3 0;
