#N canvas 0 0 800 600 12;
#N canvas 0 0 450 300 params 0;
#X obj 50 50 r \$0-param0;
#X obj 50 80 s mix;
#X obj 150 50 r \$0-param1;
#X obj 150 80 s gain;
#X obj 250 50 r \$0-bypass;
#X obj 250 80 s bypass;
#X connect 0 0 1 0;
#X connect 2 0 3 0;
#X connect 4 0 5 0;
#X restore 600 50 pd params;
#X text 600 30 Parameter receives;
#X text 50 20 ============ TEMPLATE EFFECT ============;
#X text 50 40 This is a starting point for PD effects.;
#X text 50 60 Modify the signal path below to create your effect.;
#X obj 100 150 inlet~;
#X obj 200 150 inlet~;
#X text 100 130 Left in;
#X text 200 130 Right in;
#X obj 100 450 outlet~;
#X obj 200 450 outlet~;
#X text 100 470 Left out;
#X text 200 470 Right out;
#X obj 100 200 *~;
#X obj 200 200 *~;
#X obj 300 200 r gain;
#X obj 100 250 *~;
#X obj 200 250 *~;
#X obj 300 250 r mix;
#X obj 100 300 +~;
#X obj 200 300 +~;
#X obj 100 350 *~;
#X obj 200 350 *~;
#X obj 300 350 r bypass;
#X obj 300 380 expr 1-$f1;
#X text 350 380 Invert bypass;
#X text 350 200 Gain control;
#X text 350 250 Mix (wet/dry);
#X text 350 350 Bypass mute;
#X text 50 520 Instance-scoped receives (\$0-*) are used for parameters.;
#X text 50 540 This enables multiple instances to run independently.;
#X obj 100 400 *~;
#X obj 200 400 *~;
#X connect 5 0 13 0;
#X connect 5 0 19 1;
#X connect 6 0 14 0;
#X connect 6 0 20 1;
#X connect 13 0 16 0;
#X connect 14 0 17 0;
#X connect 15 0 13 1;
#X connect 15 0 14 1;
#X connect 16 0 19 0;
#X connect 17 0 20 0;
#X connect 18 0 16 1;
#X connect 18 0 17 1;
#X connect 19 0 21 0;
#X connect 20 0 22 0;
#X connect 21 0 31 0;
#X connect 22 0 32 0;
#X connect 23 0 24 0;
#X connect 24 0 21 1;
#X connect 24 0 22 1;
#X connect 24 0 31 1;
#X connect 24 0 32 1;
#X connect 31 0 9 0;
#X connect 32 0 10 0;
