#N canvas 0 0 900 700 12;
#N canvas 0 0 500 400 params 0;
#X obj 50 50 r \$0-param0;
#X obj 50 80 s latent1;
#X obj 120 50 r \$0-param1;
#X obj 120 80 s latent2;
#X obj 190 50 r \$0-param2;
#X obj 190 80 s latent3;
#X obj 260 50 r \$0-param3;
#X obj 260 80 s latent4;
#X obj 330 50 r \$0-param4;
#X obj 330 80 s latent5;
#X obj 50 120 r \$0-param5;
#X obj 50 150 s latent6;
#X obj 120 120 r \$0-param6;
#X obj 120 150 s latent7;
#X obj 190 120 r \$0-param7;
#X obj 190 150 s latent8;
#X obj 50 200 r \$0-bypass;
#X obj 50 230 s bypass;
#X connect 0 0 1 0;
#X connect 2 0 3 0;
#X connect 4 0 5 0;
#X connect 6 0 7 0;
#X connect 8 0 9 0;
#X connect 10 0 11 0;
#X connect 12 0 13 0;
#X connect 14 0 15 0;
#X connect 16 0 17 0;
#X restore 700 50 pd params;
#X text 700 30 Parameter receives;
#X text 50 20 ============ RAVE PERCUSSION ============;
#X text 50 40 Neural audio effect using RAVE variational autoencoder.;
#X text 50 60 Requires nn~ external and a trained RAVE model (.ts file).;
#X obj 100 150 inlet~;
#X obj 200 150 inlet~;
#X text 100 130 Left in;
#X text 200 130 Right in;
#X obj 100 550 outlet~;
#X obj 200 550 outlet~;
#X text 100 570 Left out;
#X text 200 570 Right out;
#N canvas 0 0 600 400 latent-control 0;
#X obj 50 50 r latent1;
#X obj 50 100 pack f f f f f f f f;
#X obj 120 50 r latent2;
#X obj 190 50 r latent3;
#X obj 260 50 r latent4;
#X obj 330 50 r latent5;
#X obj 50 80 t b f;
#X obj 120 80 t b f;
#X obj 190 80 t b f;
#X obj 260 80 t b f;
#X obj 330 80 t b f;
#X obj 400 50 r latent6;
#X obj 400 80 t b f;
#X obj 50 130 s latent-list;
#X obj 470 50 r latent7;
#X obj 470 80 t b f;
#X obj 540 50 r latent8;
#X obj 540 80 t b f;
#X connect 0 0 6 0;
#X connect 1 0 13 0;
#X connect 2 0 7 0;
#X connect 3 0 8 0;
#X connect 4 0 9 0;
#X connect 5 0 10 0;
#X connect 6 0 1 0;
#X connect 6 1 1 0;
#X connect 7 0 1 0;
#X connect 7 1 1 1;
#X connect 8 0 1 0;
#X connect 8 1 1 2;
#X connect 9 0 1 0;
#X connect 9 1 1 3;
#X connect 10 0 1 0;
#X connect 10 1 1 4;
#X connect 11 0 12 0;
#X connect 12 0 1 0;
#X connect 12 1 1 5;
#X connect 14 0 15 0;
#X connect 15 0 1 0;
#X connect 15 1 1 6;
#X connect 16 0 17 0;
#X connect 17 0 1 0;
#X connect 17 1 1 7;
#X restore 500 200 pd latent-control;
#X text 500 180 Latent space modulation;
#X obj 150 200 +~;
#X obj 150 230 *~ 0.5;
#X text 250 220 Mix to mono for RAVE;
#X obj 150 280 nn~ rave_percussion.ts encode;
#X text 300 280 RAVE encoder;
#X obj 150 350 r latent-list;
#X obj 150 380 nn~ method set_decode_params;
#X text 350 380 Set latent modulation;
#X obj 150 420 nn~ rave_percussion.ts decode;
#X text 300 420 RAVE decoder;
#X obj 100 480 *~;
#X obj 200 480 *~;
#X obj 300 480 r bypass;
#X obj 300 510 expr 1-$f1;
#X text 350 510 Invert for wet signal;
#X connect 5 0 15 0;
#X connect 5 0 24 1;
#X connect 6 0 15 1;
#X connect 6 0 25 1;
#X connect 15 0 16 0;
#X connect 16 0 18 0;
#X connect 18 0 23 0;
#X connect 20 0 21 0;
#X connect 23 0 24 0;
#X connect 23 0 25 0;
#X connect 24 0 9 0;
#X connect 25 0 10 0;
#X connect 26 0 27 0;
#X connect 27 0 24 1;
#X connect 27 0 25 1;
